<svg width="280" height="280" viewBox="0 0 280 280" fill="none" xmlns="http://www.w3.org/2000/svg">
<path d="M280 140C280 167.689 271.789 194.757 256.406 217.78C241.022 240.803 219.157 258.747 193.576 269.343C167.994 279.939 139.845 282.712 112.687 277.31C85.5301 271.908 60.5845 258.574 41.0051 238.995C21.4258 219.416 8.09205 194.47 2.69012 167.313C-2.71181 140.155 0.0606593 112.006 10.6569 86.4243C21.2532 60.8426 39.1973 38.9776 62.2202 23.5942C85.2431 8.21085 112.311 0 140 0C177.13 0 212.74 14.75 238.995 41.005C265.25 67.2601 280 102.87 280 140ZM107.94 144.48L40.8276 94.99V187.495L107.94 144.48ZM58.17 90.3875L123.673 138.687C128.469 141.826 134.076 143.497 139.808 143.497C145.539 143.497 151.146 141.826 155.943 138.687L221.445 90.3875H58.17ZM216.195 189.682L159.145 153.09C153.113 155.997 146.503 157.507 139.808 157.507C133.112 157.507 126.502 155.997 120.47 153.09L63.3675 189.682H216.195ZM238.788 95.0075L171.675 144.48L238.788 187.53V95.0075Z" fill="white"/>
</svg>
