<svg width="280" height="280" viewBox="0 0 280 280" fill="none" xmlns="http://www.w3.org/2000/svg">
<path d="M140 0C217.323 0 280 62.6774 280 140C280 217.323 217.323 280 140 280C62.6774 280 0 217.323 0 140C0 62.6774 62.6774 0 140 0ZM188.294 197.065C190.869 189.164 202.933 110.423 204.424 94.9078C204.875 90.2087 203.39 87.0861 200.48 85.6922C196.962 84 191.751 84.8461 185.707 87.0252C177.417 90.0139 71.4304 135.015 65.307 137.62C59.5 140.085 54.0096 142.776 54.0096 146.671C54.0096 149.41 55.6348 150.95 60.1148 152.551C64.7774 154.213 76.5191 157.774 83.4522 159.685C90.1296 161.53 97.7322 159.929 101.993 157.281C106.51 154.475 158.632 119.597 162.376 116.541C166.113 113.485 169.096 117.399 166.04 120.461C162.984 123.517 127.205 158.243 122.488 163.051C116.76 168.889 120.826 174.939 124.667 177.362C129.056 180.125 160.617 201.296 165.37 204.692C170.124 208.089 174.945 209.629 179.358 209.629C183.771 209.629 186.097 203.816 188.294 197.065Z" fill="white"/>
</svg>
