<svg width="280" height="280" viewBox="0 0 280 280" fill="none" xmlns="http://www.w3.org/2000/svg">
<path d="M140 0C62.8052 0 0 62.8052 0 140C0 217.195 62.8052 280 140 280C217.201 280 280 217.195 280 140C280 62.8052 217.201 0 140 0ZM200.705 167.604C214.322 179.693 217.152 184.009 217.615 184.745C223.257 193.693 211.357 194.783 211.357 194.783H186.279C186.279 194.783 180.174 194.85 174.957 191.392C166.454 185.823 157.549 175.024 151.291 176.899C146.038 178.47 146.087 185.567 146.087 191.636C146.087 193.809 144.218 194.783 140 194.783C135.782 194.783 134.029 194.783 132.16 194.783C118.422 194.783 103.515 190.157 88.6443 174.617C67.6078 152.649 49.1583 108.397 49.1583 108.397C49.1583 108.397 48.0687 106.169 49.2557 104.811C50.6009 103.29 54.2591 103.484 54.2591 103.484L78.5765 103.478C78.5765 103.478 80.8652 103.91 82.5087 105.067C83.8661 106.017 84.6209 107.83 84.6209 107.83C84.6209 107.83 88.7052 121.319 93.9096 129.92C104.075 146.708 108.804 147.134 112.256 145.326C117.296 142.709 115.652 124.862 115.652 124.862C115.652 124.862 115.877 117.198 113.248 113.783C111.221 111.142 107.343 109.736 105.651 109.517C104.282 109.34 106.57 106.942 109.486 105.572C113.382 103.837 118.683 103.393 127.826 103.478C134.942 103.545 136.993 103.971 139.769 104.61C148.163 106.546 146.087 111.653 146.087 129.585C146.087 135.331 145.296 143.409 149.63 146.087C151.498 147.243 157.902 148.656 169.297 130.151C174.708 121.374 179.011 106.814 179.011 106.814C179.011 106.814 179.9 105.213 181.282 104.422C182.694 103.612 182.651 103.63 184.587 103.63C186.523 103.63 205.934 103.478 210.195 103.478C214.45 103.478 218.443 103.43 219.13 105.925C220.117 109.51 215.99 121.794 205.532 135.124C188.349 157.001 186.443 154.956 200.705 167.604Z" fill="white"/>
</svg>
